PathFileType	4	(X/Y/Z)	 s07c0302.trc
DataRate	CameraRate	NumFrames	NumMarkers	Units	OrigDataRate	OrigDataStartFrame	OrigNumFrames
200	200	4	48	mm	200	1251	2000
Frame#	Time	racr			lacr			c7			jug			rlel			rdr			llel			ldr			s2			lic			ric			lasi			rasi			rpsi			lpsi			rgt			lgt			rth1			rth2			rth3			rth4			rlfc			rmfc			rsh1			rsh2			rsh3			rsh4			rlmal			rcal			rtoe			rmt5			lth1			lth2			lth4			lth3			llfc			lmfc			lsh1			lsh2			lsh3			lsh4			llmal			lcal			ltoe			lmt5			SBIKE			LBIKE			RBIKE			
		X1	Y1	Z1	X2	Y2	Z2	X3	Y3	Z3	X4	Y4	Z4	X5	Y5	Z5	X6	Y6	Z6	X7	Y7	Z7	X8	Y8	Z8	X9	Y9	Z9	X10	Y10	Z10	X11	Y11	Z11	X12	Y12	Z12	X13	Y13	Z13	X14	Y14	Z14	X15	Y15	Z15	X16	Y16	Z16	X17	Y17	Z17	X18	Y18	Z18	X19	Y19	Z19	X20	Y20	Z20	X21	Y21	Z21	X22	Y22	Z22	X23	Y23	Z23	X24	Y24	Z24	X25	Y25	Z25	X26	Y26	Z26	X27	Y27	Z27	X28	Y28	Z28	X29	Y29	Z29	X30	Y30	Z30	X31	Y31	Z31	X32	Y32	Z32	X33	Y33	Z33	X34	Y34	Z34	X35	Y35	Z35	X36	Y36	Z36	X37	Y37	Z37	X38	Y38	Z38	X39	Y39	Z39	X40	Y40	Z40	X41	Y41	Z41	X42	Y42	Z42	X43	Y43	Z43	X44	Y44	Z44	X45	Y45	Z45	X46	Y46	Z46	X47	Y47	Z47	X48	Y48	Z48	
1251	6.2550	842.696435	1298.654431	7.607019	866.105198	1347.217222	-310.286637	869.988733	1376.265427	-147.210704	784.645583	1251.213328	-181.829326	541.340016	1101.545026	60.631742	723.299630	918.090504	-47.254320	634.848899	1158.352007	-506.342003	733.607434	910.670768	-399.788437	268.247279	1317.485612	-277.321084	461.177454	1319.895070	-379.913413	402.558423	1305.409281	-94.394582	460.520995	1235.185050	-356.804105	410.833365	1255.704782	-112.349433	294.920956	1349.001631	-220.499204	330.674243	1351.627194	-322.497776	314.677946	1206.016083	-69.638696	366.689783	1177.740405	-426.962183	408.523413	1075.072976	-48.449016	468.512486	1010.898434	-48.178426	490.575919	928.617425	-43.892438	499.426601	1028.705621	-58.751789	545.908586	800.660807	-66.772129	546.340280	785.938306	-172.849101	453.049726	688.473495	-52.479638	417.656173	609.444984	-73.662688	346.881693	558.029544	-76.004067	433.504006	602.125017	-111.983877	255.643463	452.020502	-82.864784	181.567444	426.513178	-112.275437	463.145280	353.157599	-112.340721	377.901819	333.062630	-44.689477	391.383028	1055.538438	-417.603360	430.115387	978.091278	-402.406629	460.974863	986.062664	-385.890823	425.136781	889.094166	-394.757441	419.810119	713.866383	-368.780300	394.625792	704.382884	-274.550446	298.234981	624.126501	-396.610174	244.025068	558.389386	-382.339810	161.600319	523.573918	-394.169874	246.055945	558.634250	-340.800009	46.401494	444.630670	-400.240098	-27.540554	473.897633	-362.634485	120.890762	224.774052	-353.234728	57.500095	276.256019	-415.429385	-257.154131	969.976072	-229.823915	-75.549943	84.372932	-437.290000	-82.225733	79.680957	-39.752073	
1252	6.2600	843.536259	1295.407148	7.042905	865.297833	1349.533172	-310.195583	869.777805	1376.128303	-147.095367	785.950425	1250.778647	-183.189696	540.944036	1100.085008	61.657168	723.120287	918.084438	-46.682897	634.702766	1158.644763	-505.545448	733.325894	910.558082	-399.711322	267.938365	1316.896937	-277.220191	461.229687	1320.274353	-378.546901	402.055435	1302.342343	-93.939207	460.373785	1235.576716	-356.002493	409.777620	1253.445345	-111.475796	294.259719	1347.823672	-219.702220	330.618226	1351.621737	-321.844028	312.760676	1203.266419	-69.937261	368.065821	1178.171330	-427.605627	404.898688	1070.393632	-49.063284	464.133879	1005.295294	-49.449706	484.764178	922.671973	-45.694923	495.061835	1022.730156	-59.683364	538.940151	794.017978	-69.280193	538.604208	779.643523	-174.643237	447.933986	680.981941	-53.562817	413.970962	601.264803	-74.116021	344.245432	548.273653	-75.549162	429.456042	594.108395	-112.804857	254.833782	439.571232	-81.492257	180.902247	413.019074	-110.962647	463.736684	343.520206	-113.017142	379.319882	321.838426	-44.885794	393.987692	1056.264680	-417.160392	433.780628	979.329119	-401.951903	464.619141	987.716371	-385.707637	430.097105	890.286392	-394.141289	426.731689	714.806561	-367.690768	400.730886	705.867396	-272.733144	303.498926	627.374077	-395.193863	246.981774	563.545632	-381.473419	163.593110	531.052125	-393.545891	248.286716	563.984686	-340.090824	46.243527	454.924699	-400.026202	-27.666374	485.099505	-362.626615	119.309098	234.763835	-353.294786	56.168244	286.666985	-415.402848	-257.233483	969.835933	-230.422472	-75.571247	84.158079	-437.335226	-82.255844	79.633909	-39.810990	
1253	6.2650	844.549000	1292.448506	6.215877	864.523868	1352.085137	-310.172928	869.598621	1376.253888	-146.879064	787.428817	1250.573403	-184.552170	540.497428	1099.234710	63.326629	722.586625	917.661391	-46.943791	634.830146	1159.096287	-504.906909	733.056532	910.559936	-400.973083	267.523528	1316.014349	-276.902885	461.139854	1320.416189	-377.043170	401.711576	1298.986851	-93.464337	460.057863	1235.549708	-355.149821	408.906905	1250.996970	-110.493319	293.609451	1346.291368	-218.908224	330.234000	1351.031117	-320.851112	311.173035	1200.302028	-70.055052	369.301203	1178.378086	-428.456479	401.666630	1065.288515	-50.488749	459.990409	999.779741	-50.944966	479.327355	916.684785	-47.744778	491.022674	1016.783740	-60.836303	531.803463	787.966069	-71.913339	531.160917	773.350369	-176.978725	442.908637	673.635705	-54.573056	410.313739	593.614516	-74.578284	341.379399	539.051635	-75.058500	428.224976	586.529430	-111.811223	253.626963	428.225877	-79.575943	179.775367	400.400226	-109.611454	463.859062	333.895061	-112.961045	379.880458	310.875175	-45.036056	396.073959	1056.614155	-416.814179	436.843788	980.262535	-401.757083	467.646964	989.017736	-385.696146	434.293707	891.117944	-393.800783	433.213184	715.364711	-366.565129	406.387239	707.043139	-271.109668	307.958203	630.975586	-394.319272	249.666828	568.689936	-380.679585	165.272652	538.714565	-392.842444	249.937416	569.984876	-338.538603	46.007083	465.507936	-399.817080	-27.764334	495.775856	-362.577345	118.577574	245.061485	-353.323035	55.522941	297.284859	-415.411743	-257.366950	969.706305	-231.027334	-75.589851	83.952844	-437.429907	-82.283288	79.612160	-39.864805	
1254	6.2700	845.215189	1290.172190	5.814431	863.962781	1354.651740	-310.234606	869.445745	1376.631015	-146.559201	788.692906	1250.729688	-185.557099	540.629454	1098.264548	64.665150	722.159606	917.415479	-46.957617	634.114537	1159.869063	-503.723507	732.856076	910.439597	-401.118672	267.031224	1314.710264	-276.525609	460.682434	1320.217751	-375.897767	401.614943	1295.544488	-93.025513	459.553172	1235.294485	-354.364634	408.261465	1248.606334	-109.377823	292.882361	1344.608541	-217.918891	329.763022	1350.152237	-319.678245	309.883835	1197.361160	-70.018547	369.904802	1178.202256	-428.668141	398.504991	1060.991610	-50.550683	455.893185	994.233457	-52.362935	474.019223	910.832105	-49.794444	487.098531	1010.858188	-62.088714	524.811522	781.707355	-74.443499	523.368729	766.764067	-179.226074	437.952303	666.139471	-55.590445	406.709478	585.550369	-74.993065	338.496064	529.829440	-74.756002	421.061072	578.318285	-114.201345	252.388554	417.091075	-78.331152	178.728730	388.652683	-108.167131	463.085063	323.365872	-113.497559	379.437888	299.738345	-45.155657	397.510107	1056.698048	-416.536838	439.329389	980.859865	-401.697660	470.115547	990.080732	-385.837736	438.012176	891.672437	-393.730004	439.574222	715.822658	-365.734875	411.805184	708.009557	-269.769107	312.241143	634.624558	-393.701176	252.117149	574.098348	-379.965638	167.136794	546.210281	-392.269228	253.832900	573.998315	-338.724391	45.963902	475.708471	-399.520214	-27.696394	506.347817	-362.535017	118.521724	255.627542	-353.518278	55.380242	307.803909	-415.357201	-257.543383	969.583756	-231.545794	-75.621784	83.808661	-437.425089	-82.316066	79.590134	-39.904178	
